Both dumped by their girlfriends, two best friends seek refuge in the local mall.

General 
Complete name : Mallrats.1995.DVDRip.x264.AAC-AUS.mp4 
Format : MPEG-4 
Format profile : Base Media / Version 2 
Codec ID : mp42 
File size : 918 MiB 
Duration : 1h 31mn 
Overall bit rate : 1 407 Kbps

Video 
ID : 1 
Format : AVC 
Format/Info : Advanced Video Codec 
Format profile : High@L3.0 
Format settings, CABAC : Yes 
Format settings, ReFrames : 4 frames 
Codec ID : avc1 
Codec ID/Info : Advanced Video Coding 
Duration : 1h 31mn 
Bit rate mode : Variable 
Bit rate : 1 100 Kbps 
Width : 720 pixels 
Height : 416 pixels 
Display aspect ratio : 16:9 
Frame rate mode : Variable 
Frame rate : 25.000 fps 
Minimum frame rate : 8.334 fps 
Maximum frame rate : 25.000 fps 
Color space : YUV 
Chroma subsampling : 4:2:0 
Bit depth : 8 bits 
Scan type : Progressive 
Bits/(Pixel*Frame) : 0.147 
Stream size : 718 MiB (78%) 
Writing library : x264 core 112 

Audio 
ID : 2 
Format : AAC 
Format/Info : Advanced Audio Codec 
Format profile : LC 
Codec ID : 40 
Duration : 1h 31mn 
Bit rate mode : Variable 
Bit rate : 303 Kbps 
Maximum bit rate : 369 Kbps 
Channel(s) : 2 channels 
Channel positions : Front: L R 
Sampling rate : 48.0 KHz 
Compression mode : Lossy 
Stream size : 198 MiB (22%) 
Language : English